<?xml version="1.0" encoding="utf-8"?>
<!-- Generator: Adobe Illustrator 22.1.0, SVG Export Plug-In . SVG Version: 6.00 Build 0)  -->
<svg version="1.1" id="Layer_1" xmlns="http://www.w3.org/2000/svg" xmlns:xlink="http://www.w3.org/1999/xlink" x="0px" y="0px"
	 viewBox="0 0 64 64" style="enable-background:new 0 0 64 64;" xml:space="preserve">
<style type="text/css">
	.st0{fill:#050016;}
	.st1{fill:#FFB905;}
	.st2{fill:#004743;}
	.st3{fill:#FFFFFF;}
</style>
<g>
	<path class="st1" d="M43.1,40.8v4.3c7.3,0,13.3-6,13.3-13.3H52C52,36.7,48,40.8,43.1,40.8"/>
	<path class="st2" d="M34.2,31.8h-4.3c0-7.3,6-13.3,13.3-13.3v4.3C38.2,22.9,34.2,26.9,34.2,31.8"/>
	<path class="st1" d="M43.1,45.1L43.1,45.1l0-4.3h0c-4.9,0-8.9-4-8.9-8.9h-4.3C29.8,39.1,35.8,45.1,43.1,45.1"/>
	<path class="st2" d="M20.9,45.1L20.9,45.1v-4.3c-4.9,0-8.9-4-8.9-8.9H7.6C7.6,39.1,13.6,45.1,20.9,45.1"/>
	<path class="st2" d="M20.9,22.9L20.9,22.9v-4.3c7.3,0,13.3,6,13.3,13.3h-4.3C29.8,26.9,25.8,22.9,20.9,22.9"/>
	<path class="st1" d="M24,32.3c0,1.7-1.4,3.1-3.1,3.1c-1.7,0-3.1-1.4-3.1-3.1c0-1.7,1.4-3.1,3.1-3.1C22.6,29.2,24,30.6,24,32.3"/>
	<rect x="28.2" y="44.9" class="st2" width="7.6" height="0.5"/>
</g>
</svg>
