<?xml version="1.0" encoding="utf-8"?>
<!-- Generator: Adobe Illustrator 22.1.0, SVG Export Plug-In . SVG Version: 6.00 Build 0)  -->
<svg version="1.1" id="Layer_1" xmlns="http://www.w3.org/2000/svg" xmlns:xlink="http://www.w3.org/1999/xlink" x="0px" y="0px"
	 viewBox="0 0 250.1 104" style="enable-background:new 0 0 250.1 104;" xml:space="preserve">
<style type="text/css">
	.st0{fill:#FFFFFF;}
</style>
<g>
	<g>
		<g>
			<path class="st0" d="M15.2,76.9H4.3c0.2,1,0.7,1.8,1.5,2.4s1.8,0.9,3,0.9c1.5,0,2.8-0.5,3.8-1.5l1.7,2c-0.6,0.7-1.4,1.3-2.4,1.7
				c-1,0.4-2,0.6-3.2,0.6c-1.5,0-2.9-0.3-4-0.9c-1.2-0.6-2.1-1.5-2.7-2.5c-0.6-1.1-1-2.3-1-3.7c0-1.4,0.3-2.6,0.9-3.7
				s1.5-1.9,2.6-2.5s2.3-0.9,3.7-0.9s2.6,0.3,3.6,0.9c1.1,0.6,1.9,1.4,2.5,2.5s0.9,2.3,0.9,3.8C15.2,76.1,15.2,76.4,15.2,76.9z
				 M5.5,72.2c-0.7,0.6-1.2,1.4-1.3,2.5h7.9c-0.1-1-0.6-1.8-1.3-2.5c-0.7-0.6-1.6-0.9-2.7-0.9C7.1,71.3,6.3,71.6,5.5,72.2z"/>
			<path class="st0" d="M17.3,74.2h7.2v2.7h-7.2V74.2z"/>
			<path class="st0" d="M27.7,63.4H31v19.4h-3.3V63.4z"/>
			<path class="st0" d="M47.9,76.9H37c0.2,1,0.7,1.8,1.5,2.4s1.8,0.9,3,0.9c1.5,0,2.8-0.5,3.8-1.5l1.7,2c-0.6,0.7-1.4,1.3-2.4,1.7
				s-2,0.6-3.2,0.6c-1.5,0-2.9-0.3-4-0.9c-1.2-0.6-2.1-1.5-2.7-2.5c-0.6-1.1-1-2.3-1-3.7c0-1.4,0.3-2.6,0.9-3.7
				c0.6-1.1,1.5-1.9,2.6-2.5s2.3-0.9,3.7-0.9s2.6,0.3,3.6,0.9c1.1,0.6,1.9,1.4,2.5,2.5s0.9,2.3,0.9,3.8
				C47.9,76.1,47.9,76.4,47.9,76.9z M38.3,72.2c-0.7,0.6-1.2,1.4-1.3,2.5h7.9c-0.1-1-0.6-1.8-1.3-2.5c-0.7-0.6-1.6-0.9-2.7-0.9
				C39.9,71.3,39,71.6,38.3,72.2z"/>
			<path class="st0" d="M60.7,70.2c1.1,1,1.6,2.5,1.6,4.4v8.2h-3.1v-1.7c-0.4,0.6-1,1.1-1.7,1.4S55.9,83,54.8,83c-1,0-2-0.2-2.7-0.5
				c-0.8-0.4-1.4-0.9-1.8-1.5c-0.4-0.6-0.6-1.4-0.6-2.2c0-1.3,0.5-2.3,1.4-3c0.9-0.8,2.4-1.1,4.4-1.1h3.6v-0.2c0-1-0.3-1.7-0.9-2.2
				c-0.6-0.5-1.4-0.8-2.6-0.8c-0.8,0-1.6,0.1-2.3,0.4c-0.8,0.2-1.4,0.6-1.9,1l-1.3-2.4c0.7-0.6,1.6-1,2.6-1.3s2.1-0.4,3.3-0.4
				C58.1,68.7,59.6,69.2,60.7,70.2z M57.8,80c0.6-0.4,1.1-0.9,1.3-1.6v-1.6h-3.4c-1.9,0-2.8,0.6-2.8,1.9c0,0.6,0.2,1.1,0.7,1.4
				s1.1,0.5,2,0.5C56.4,80.6,57.1,80.4,57.8,80z"/>
			<path class="st0" d="M74.2,68.7v3.1c-0.3-0.1-0.5-0.1-0.8-0.1c-1.3,0-2.3,0.4-3,1.1s-1.1,1.8-1.1,3.2v6.8H66V68.9h3.1v2
				C70.2,69.4,71.9,68.7,74.2,68.7z"/>
			<path class="st0" d="M88.9,70.2c1.1,1,1.6,2.5,1.6,4.6v8h-3.3v-7.6c0-1.2-0.3-2.1-0.9-2.8c-0.6-0.6-1.4-0.9-2.5-0.9
				c-1.2,0-2.1,0.4-2.8,1.1c-0.7,0.7-1,1.8-1,3.1v7h-3.3V68.9h3.1v1.8c0.5-0.6,1.2-1.1,2-1.5c0.8-0.3,1.7-0.5,2.8-0.5
				C86.4,68.7,87.8,69.2,88.9,70.2z"/>
			<path class="st0" d="M94.4,66c-0.4-0.4-0.6-0.8-0.6-1.4s0.2-1,0.6-1.4s0.9-0.6,1.5-0.6s1.1,0.2,1.5,0.5c0.4,0.4,0.6,0.8,0.6,1.3
				c0,0.6-0.2,1.1-0.6,1.4s-0.9,0.6-1.5,0.6C95.3,66.6,94.8,66.4,94.4,66z M94.3,68.9h3.3v13.9h-3.3V68.9z"/>
			<path class="st0" d="M113.6,70.2c1.1,1,1.6,2.5,1.6,4.6v8h-3.3v-7.6c0-1.2-0.3-2.1-0.9-2.8c-0.6-0.6-1.4-0.9-2.5-0.9
				c-1.2,0-2.1,0.4-2.8,1.1c-0.7,0.7-1,1.8-1,3.1v7h-3.3V68.9h3.1v1.8c0.5-0.6,1.2-1.1,2-1.5c0.8-0.3,1.7-0.5,2.8-0.5
				C111.1,68.7,112.5,69.2,113.6,70.2z"/>
			<path class="st0" d="M132.8,68.9v11.8c0,4.9-2.5,7.4-7.5,7.4c-1.3,0-2.6-0.2-3.8-0.5c-1.2-0.3-2.2-0.8-3-1.5l1.5-2.5
				c0.6,0.5,1.4,0.9,2.3,1.2s1.9,0.5,2.8,0.5c1.5,0,2.7-0.3,3.4-1s1.1-1.8,1.1-3.2v-0.7c-0.6,0.6-1.2,1.1-2,1.4s-1.7,0.5-2.6,0.5
				c-1.3,0-2.5-0.3-3.6-0.8s-1.9-1.4-2.5-2.4s-0.9-2.2-0.9-3.5s0.3-2.5,0.9-3.5s1.5-1.8,2.5-2.4s2.3-0.8,3.6-0.8
				c1,0,1.9,0.2,2.8,0.5c0.8,0.3,1.5,0.8,2.1,1.5V69L132.8,68.9L132.8,68.9z M128.4,78.3c0.8-0.7,1.2-1.7,1.2-2.9
				c0-1.2-0.4-2.1-1.2-2.8c-0.8-0.7-1.8-1.1-3-1.1c-1.3,0-2.3,0.4-3.1,1.1c-0.8,0.7-1.2,1.7-1.2,2.8c0,1.2,0.4,2.1,1.2,2.9
				c0.8,0.7,1.8,1.1,3.1,1.1C126.6,79.4,127.6,79,128.4,78.3z"/>
		</g>
		<g>
			<path class="st0" d="M141.3,82.1c-1.3-0.6-2.3-1.5-3-2.6s-1.1-2.4-1.1-3.8s0.4-2.7,1.1-3.8c0.7-1.1,1.7-2,3-2.6s2.7-0.9,4.3-0.9
				c1.7,0,3.2,0.4,4.5,1.1c1.2,0.7,2.1,1.8,2.6,3.1l-4.6,2.2c-0.6-1.3-1.4-1.9-2.5-1.9c-0.7,0-1.3,0.2-1.7,0.7
				c-0.5,0.5-0.7,1.2-0.7,2.1s0.2,1.6,0.7,2.1s1,0.7,1.7,0.7c1.1,0,1.9-0.6,2.5-1.9l4.6,2.2c-0.5,1.3-1.3,2.4-2.6,3.1
				c-1.2,0.7-2.7,1.1-4.5,1.1C144.1,83,142.6,82.7,141.3,82.1z"/>
			<path class="st0" d="M166.2,69.9c1.3,1.1,2,2.8,2,5.2v7.7h-5.5v-1.9c-0.7,1.4-2,2.1-4,2.1c-1.1,0-2.1-0.2-2.9-0.6
				c-0.8-0.4-1.4-0.9-1.8-1.6c-0.4-0.7-0.6-1.4-0.6-2.3c0-1.4,0.5-2.5,1.6-3.2s2.7-1.1,4.9-1.1h2.4c-0.2-1.1-1.1-1.7-2.7-1.7
				c-0.6,0-1.3,0.1-2,0.3c-0.7,0.2-1.2,0.5-1.7,0.8l-1.9-3.9c0.8-0.5,1.8-0.9,3-1.2c1.2-0.3,2.3-0.4,3.5-0.4
				C162.9,68.3,164.9,68.8,166.2,69.9z M161.5,79.2c0.3-0.2,0.6-0.6,0.7-1v-1h-1.5c-1.2,0-1.8,0.4-1.8,1.2c0,0.3,0.1,0.6,0.4,0.8
				c0.3,0.2,0.6,0.3,1,0.3C160.8,79.5,161.2,79.4,161.5,79.2z"/>
			<path class="st0" d="M180.9,68.3v5.2c-0.5-0.1-0.9-0.1-1.3-0.1c-2,0-3,1-3,3.1v6.3h-5.9V68.5h5.6V70
				C177.4,68.9,178.9,68.3,180.9,68.3z"/>
			<path class="st0" d="M196.8,69.8c1.1,1.1,1.6,2.7,1.6,4.8v8.1h-5.9v-7.1c0-1.6-0.6-2.5-1.7-2.5c-0.7,0-1.2,0.2-1.6,0.7
				c-0.4,0.5-0.6,1.2-0.6,2.2v6.7h-5.9V68.5h5.6v1.4c0.6-0.6,1.2-1,1.9-1.3s1.5-0.4,2.4-0.4C194.3,68.3,195.7,68.8,196.8,69.8z"/>
			<path class="st0" d="M201.3,66.5c-0.7-0.6-1-1.3-1-2.2c0-0.9,0.3-1.6,1-2.2c0.7-0.6,1.5-0.8,2.6-0.8s1.9,0.3,2.6,0.8
				c0.6,0.5,1,1.2,1,2.1s-0.3,1.6-1,2.2c-0.6,0.6-1.5,0.9-2.6,0.9C202.8,67.4,201.9,67.1,201.3,66.5z M200.9,68.5h5.9v14.3h-5.9
				V68.5z"/>
			<path class="st0" d="M225.3,68.5l-5.7,14.3h-6.1l-5.7-14.3h6.1l2.9,7.6l3.1-7.6H225.3z"/>
			<path class="st0" d="M238.3,69.9c1.3,1.1,2,2.8,2,5.2v7.7h-5.5v-1.9c-0.7,1.4-2,2.1-4,2.1c-1.1,0-2.1-0.2-2.9-0.6
				c-0.8-0.4-1.4-0.9-1.8-1.6c-0.4-0.7-0.6-1.4-0.6-2.3c0-1.4,0.5-2.5,1.6-3.2s2.7-1.1,4.9-1.1h2.4c-0.2-1.1-1.1-1.7-2.7-1.7
				c-0.6,0-1.3,0.1-2,0.3c-0.7,0.2-1.2,0.5-1.7,0.8l-1.9-3.9c0.8-0.5,1.8-0.9,3-1.2c1.2-0.3,2.3-0.4,3.5-0.4
				C235.1,68.3,237,68.8,238.3,69.9z M233.7,79.2c0.3-0.2,0.6-0.6,0.7-1v-1H233c-1.2,0-1.8,0.4-1.8,1.2c0,0.3,0.1,0.6,0.4,0.8
				c0.3,0.2,0.6,0.3,1,0.3C233,79.5,233.4,79.4,233.7,79.2z"/>
			<path class="st0" d="M242.9,63.4h5.9v19.4h-5.9V63.4z"/>
		</g>
	</g>
	<g>
		<path class="st0" d="M149.2,48.3v9.4c15.9,0,28.8-12.9,28.8-28.8h-9.4C168.6,39.6,159.9,48.3,149.2,48.3L149.2,48.3z"/>
		<path class="st0" d="M149.2,0v9.4c-10.7,0-19.4,8.7-19.4,19.4h-9.4c0-5.8,1.7-11.2,4.7-15.8C130.2,5.2,139.1,0,149.2,0z"/>
		<path class="st0" d="M149.2,48.3v9.4c-15.5,0-28.2-12.3-28.8-27.7h9.4c0.3,4.9,2.4,9.3,5.7,12.6C139,46.1,143.8,48.3,149.2,48.3z"
			/>
		<path class="st0" d="M100.9,57.7L100.9,57.7v-9.4c-10.7,0-19.4-8.7-19.4-19.4h-9.4C72.1,44.8,85,57.7,100.9,57.7L100.9,57.7z"/>
		<path class="st0" d="M129.8,28.9h-9.4c0-10.7-8.7-19.4-19.4-19.4V0c10.1,0,19,5.2,24.1,13.1C128,17.6,129.8,23,129.8,28.9z"/>
		<path class="st0" d="M107.6,29.9c0,3.7-3,6.7-6.7,6.7s-6.7-3-6.7-6.7s3-6.7,6.7-6.7C104.6,23.2,107.6,26.2,107.6,29.9L107.6,29.9z
			"/>
		<rect x="116.8" y="57.3" class="st0" width="16.5" height="1.2"/>
	</g>
	<g>
		<path class="st0" d="M45.3,93.7h-2.8v-1.3h7.1v1.3h-2.8v7.1h-1.6L45.3,93.7L45.3,93.7z"/>
		<path class="st0" d="M54.2,94.3v1.4c-0.1,0-0.2,0-0.3,0c-0.6,0-1,0.2-1.4,0.5C52.2,96.5,52,97,52,97.7v3.1h-1.5v-6.4h1.4v0.9
			C52.4,94.6,53.1,94.3,54.2,94.3z"/>
		<path class="st0" d="M60,95c0.5,0.5,0.8,1.1,0.8,2v3.8h-1.4V100c-0.2,0.3-0.4,0.5-0.8,0.6s-0.8,0.2-1.2,0.2
			c-0.5,0-0.9-0.1-1.3-0.2c-0.4-0.2-0.6-0.4-0.8-0.7c-0.2-0.3-0.3-0.6-0.3-1c0-0.6,0.2-1,0.6-1.4c0.4-0.3,1.1-0.5,2-0.5h1.7v-0.1
			c0-0.4-0.1-0.8-0.4-1c-0.3-0.2-0.7-0.4-1.2-0.4c-0.4,0-0.7,0.1-1.1,0.2c-0.3,0.1-0.6,0.3-0.9,0.5l-0.6-1.1
			c0.3-0.3,0.7-0.5,1.2-0.6s1-0.2,1.5-0.2C58.8,94.3,59.5,94.5,60,95z M58.6,99.5c0.3-0.2,0.5-0.4,0.6-0.7V98h-1.5
			c-0.9,0-1.3,0.3-1.3,0.9c0,0.3,0.1,0.5,0.3,0.6c0.2,0.2,0.5,0.2,0.9,0.2C58,99.8,58.3,99.7,58.6,99.5z"/>
		<path class="st0" d="M68.1,95c0.5,0.5,0.7,1.2,0.7,2.1v3.7h-1.5v-3.5c0-0.6-0.1-1-0.4-1.3s-0.6-0.4-1.1-0.4c-0.6,0-1,0.2-1.3,0.5
			S64,96.9,64,97.5v3.2h-1.5v-6.4h1.4v0.8c0.2-0.3,0.6-0.5,0.9-0.7s0.8-0.2,1.3-0.2C66.9,94.3,67.6,94.5,68.1,95z"/>
		<path class="st0" d="M71,100.7c-0.5-0.1-0.9-0.3-1.2-0.5l0.6-1.1c0.3,0.2,0.6,0.3,1,0.5c0.4,0.1,0.8,0.2,1.2,0.2
			c0.9,0,1.3-0.2,1.3-0.7c0-0.2-0.1-0.4-0.3-0.5c-0.2-0.1-0.6-0.2-1.1-0.3c-0.5-0.1-1-0.2-1.3-0.3c-0.3-0.1-0.6-0.3-0.9-0.5
			c-0.2-0.3-0.4-0.6-0.4-1.1c0-0.6,0.3-1.1,0.8-1.5s1.2-0.5,2.1-0.5c0.4,0,0.9,0,1.3,0.1s0.8,0.2,1.1,0.4L74.7,96
			c-0.5-0.3-1.2-0.5-1.8-0.5c-0.4,0-0.8,0.1-1,0.2s-0.3,0.3-0.3,0.5s0.1,0.4,0.4,0.5c0.2,0.1,0.6,0.2,1.1,0.3
			c0.5,0.1,0.9,0.2,1.3,0.3s0.6,0.3,0.8,0.5c0.2,0.2,0.4,0.6,0.4,1.1c0,0.6-0.3,1.1-0.8,1.4c-0.5,0.4-1.2,0.5-2.1,0.5
			C72,100.9,71.5,100.8,71,100.7z"/>
		<path class="st0" d="M77.7,100.4c-0.5-0.3-0.9-0.7-1.2-1.2s-0.5-1-0.5-1.6s0.1-1.2,0.4-1.7s0.7-0.9,1.2-1.2
			c0.5-0.3,1.1-0.4,1.8-0.4c0.6,0,1.2,0.1,1.7,0.4s0.8,0.6,1.1,1.1L81,96.5c-0.2-0.3-0.4-0.5-0.7-0.7s-0.6-0.2-0.9-0.2
			c-0.6,0-1,0.2-1.4,0.5c-0.4,0.4-0.6,0.9-0.6,1.5s0.2,1.1,0.5,1.5c0.4,0.4,0.8,0.5,1.4,0.5c0.3,0,0.6-0.1,0.9-0.2s0.5-0.4,0.7-0.7
			l1.2,0.7c-0.2,0.5-0.6,0.9-1.1,1.1c-0.5,0.3-1,0.4-1.7,0.4C78.8,100.9,78.2,100.7,77.7,100.4z"/>
		<path class="st0" d="M89.4,98.1h-5c0.1,0.5,0.3,0.8,0.7,1.1s0.8,0.4,1.4,0.4c0.7,0,1.3-0.2,1.7-0.7l0.8,0.9
			c-0.3,0.3-0.7,0.6-1.1,0.8c-0.4,0.2-0.9,0.3-1.5,0.3c-0.7,0-1.3-0.1-1.9-0.4c-0.5-0.3-1-0.7-1.2-1.2s-0.4-1.1-0.4-1.7
			s0.1-1.2,0.4-1.7s0.7-0.9,1.2-1.2c0.5-0.3,1.1-0.4,1.7-0.4s1.2,0.1,1.7,0.4s0.9,0.7,1.2,1.2c0.3,0.5,0.4,1.1,0.4,1.7
			C89.4,97.7,89.4,97.9,89.4,98.1z M84.9,95.9c-0.3,0.3-0.5,0.7-0.6,1.1H88c-0.1-0.5-0.3-0.8-0.6-1.1s-0.7-0.4-1.2-0.4
			C85.7,95.5,85.3,95.6,84.9,95.9z"/>
		<path class="st0" d="M96.2,95c0.5,0.5,0.7,1.2,0.7,2.1v3.7h-1.5v-3.5c0-0.6-0.1-1-0.4-1.3s-0.6-0.4-1.1-0.4c-0.6,0-1,0.2-1.3,0.5
			s-0.5,0.8-0.5,1.4v3.2h-1.5v-6.4H92v0.8c0.2-0.3,0.6-0.5,0.9-0.7c0.4-0.2,0.8-0.2,1.3-0.2C95.1,94.3,95.8,94.5,96.2,95z"/>
		<path class="st0" d="M105,91.9v8.9h-1.4V100c-0.2,0.3-0.6,0.5-0.9,0.7c-0.4,0.2-0.8,0.2-1.2,0.2c-0.6,0-1.2-0.1-1.7-0.4
			s-0.9-0.7-1.2-1.2c-0.3-0.5-0.4-1.1-0.4-1.7s0.1-1.2,0.4-1.7s0.7-0.9,1.2-1.2c0.5-0.3,1-0.4,1.7-0.4c0.4,0,0.8,0.1,1.2,0.2
			c0.4,0.1,0.7,0.4,0.9,0.6v-3.3h1.4V91.9z M102.6,99.3c0.3-0.2,0.5-0.4,0.7-0.7c0.2-0.3,0.3-0.7,0.3-1.1s-0.1-0.8-0.3-1.1
			c-0.2-0.3-0.4-0.5-0.7-0.7s-0.6-0.2-1-0.2s-0.7,0.1-1,0.2c-0.3,0.2-0.5,0.4-0.7,0.7c-0.2,0.3-0.3,0.7-0.3,1.1s0.1,0.8,0.3,1.1
			s0.4,0.5,0.7,0.7c0.3,0.2,0.6,0.2,1,0.2C102,99.6,102.3,99.5,102.6,99.3z"/>
		<path class="st0" d="M106.9,93.1c-0.2-0.2-0.3-0.4-0.3-0.6c0-0.3,0.1-0.5,0.3-0.6c0.2-0.2,0.4-0.3,0.7-0.3c0.3,0,0.5,0.1,0.7,0.2
			c0.2,0.2,0.3,0.4,0.3,0.6c0,0.3-0.1,0.5-0.3,0.7c-0.2,0.2-0.4,0.3-0.7,0.3C107.3,93.3,107,93.2,106.9,93.1z M106.8,94.4h1.5v6.4
			h-1.5V94.4z"/>
		<path class="st0" d="M115.7,95c0.5,0.5,0.7,1.2,0.7,2.1v3.7h-1.5v-3.5c0-0.6-0.1-1-0.4-1.3s-0.6-0.4-1.1-0.4c-0.6,0-1,0.2-1.3,0.5
			s-0.5,0.8-0.5,1.4v3.2h-1.5v-6.4h1.4v0.8c0.2-0.3,0.6-0.5,0.9-0.7c0.4-0.2,0.8-0.2,1.3-0.2C114.5,94.3,115.2,94.5,115.7,95z"/>
		<path class="st0" d="M124.5,94.4v5.4c0,2.3-1.2,3.4-3.5,3.4c-0.6,0-1.2-0.1-1.8-0.2c-0.6-0.2-1-0.4-1.4-0.7l0.7-1.1
			c0.3,0.2,0.6,0.4,1.1,0.6c0.4,0.1,0.9,0.2,1.3,0.2c0.7,0,1.2-0.2,1.5-0.5s0.5-0.8,0.5-1.5v-0.3c-0.3,0.3-0.6,0.5-0.9,0.6
			c-0.4,0.1-0.8,0.2-1.2,0.2c-0.6,0-1.2-0.1-1.6-0.4c-0.5-0.3-0.9-0.6-1.2-1.1s-0.4-1-0.4-1.6s0.1-1.1,0.4-1.6s0.7-0.8,1.2-1.1
			c0.5-0.3,1-0.4,1.6-0.4c0.5,0,0.9,0.1,1.3,0.2s0.7,0.4,1,0.7v-0.9h1.4V94.4z M122.5,98.7c0.4-0.3,0.5-0.8,0.5-1.3s-0.2-1-0.5-1.3
			c-0.4-0.3-0.8-0.5-1.4-0.5s-1,0.2-1.4,0.5s-0.5,0.8-0.5,1.3s0.2,1,0.5,1.3c0.4,0.3,0.8,0.5,1.4,0.5S122.1,99.1,122.5,98.7z"/>
		<path class="st0" d="M134.9,92.7c0.5,0.2,1,0.6,1.2,1c0.3,0.4,0.4,1,0.4,1.6s-0.1,1.1-0.4,1.6c-0.3,0.5-0.7,0.8-1.2,1
			s-1.2,0.4-1.9,0.4h-1.9v2.4h-1.6v-8.4h3.5C133.8,92.4,134.4,92.5,134.9,92.7z M134.5,96.6c0.4-0.3,0.5-0.7,0.5-1.2
			s-0.2-0.9-0.5-1.2c-0.4-0.3-0.9-0.4-1.5-0.4h-1.8V97h1.8C133.7,97,134.2,96.9,134.5,96.6z"/>
		<path class="st0" d="M144,98.1h-5c0.1,0.5,0.3,0.8,0.7,1.1s0.8,0.4,1.4,0.4c0.7,0,1.3-0.2,1.7-0.7l0.8,0.9
			c-0.3,0.3-0.7,0.6-1.1,0.8c-0.4,0.2-0.9,0.3-1.5,0.3c-0.7,0-1.3-0.1-1.9-0.4c-0.5-0.3-1-0.7-1.2-1.2s-0.4-1.1-0.4-1.7
			s0.1-1.2,0.4-1.7c0.3-0.5,0.7-0.9,1.2-1.2c0.5-0.3,1.1-0.4,1.7-0.4c0.6,0,1.2,0.1,1.7,0.4s0.9,0.7,1.2,1.2s0.4,1.1,0.4,1.7
			C144,97.7,144,97.9,144,98.1z M139.6,95.9c-0.3,0.3-0.5,0.7-0.6,1.1h3.6c-0.1-0.5-0.3-0.8-0.6-1.1c-0.3-0.3-0.7-0.4-1.2-0.4
			S139.9,95.6,139.6,95.9z"/>
		<path class="st0" d="M149,94.3v1.4c-0.1,0-0.2,0-0.3,0c-0.6,0-1,0.2-1.4,0.5c-0.3,0.3-0.5,0.8-0.5,1.5v3.1h-1.5v-6.4h1.4v0.9
			C147.1,94.6,147.9,94.3,149,94.3z"/>
		<path class="st0" d="M151.8,94v0.4h1.8v1.2h-1.7v5.2h-1.5v-5.2h-1.1v-1.2h1.1V94c0-0.7,0.2-1.2,0.6-1.6s1-0.6,1.7-0.6
			c0.6,0,1,0.1,1.4,0.3l-0.4,1.1c-0.3-0.2-0.5-0.3-0.8-0.3C152.1,93,151.8,93.4,151.8,94z"/>
		<path class="st0" d="M155.5,100.4c-0.5-0.3-0.9-0.7-1.2-1.2s-0.4-1.1-0.4-1.7s0.1-1.2,0.4-1.7s0.7-0.9,1.2-1.2
			c0.5-0.3,1.1-0.4,1.8-0.4s1.2,0.1,1.8,0.4c0.5,0.3,0.9,0.7,1.2,1.2s0.4,1.1,0.4,1.7s-0.1,1.2-0.4,1.7s-0.7,0.9-1.2,1.2
			c-0.5,0.3-1.1,0.4-1.8,0.4C156.7,100.9,156.1,100.7,155.5,100.4z M158.7,99c0.4-0.4,0.5-0.9,0.5-1.5s-0.2-1.1-0.5-1.5
			c-0.4-0.4-0.8-0.6-1.4-0.6c-0.6,0-1,0.2-1.4,0.6s-0.5,0.9-0.5,1.5s0.2,1.1,0.5,1.5c0.4,0.4,0.8,0.6,1.4,0.6S158.3,99.4,158.7,99z"
			/>
		<path class="st0" d="M165.7,94.3v1.4c-0.1,0-0.2,0-0.3,0c-0.6,0-1,0.2-1.4,0.5c-0.3,0.3-0.5,0.8-0.5,1.5v3.1H162v-6.4h1.4v0.9
			C163.9,94.6,164.6,94.3,165.7,94.3z"/>
		<path class="st0" d="M176.9,95c0.5,0.5,0.7,1.2,0.7,2.1v3.7h-1.5v-3.5c0-0.6-0.1-1-0.4-1.3c-0.2-0.3-0.6-0.4-1.1-0.4
			s-0.9,0.2-1.2,0.5s-0.5,0.8-0.5,1.4v3.3h-1.5v-3.5c0-0.6-0.1-1-0.4-1.3c-0.2-0.3-0.6-0.4-1.1-0.4s-0.9,0.2-1.2,0.5
			s-0.5,0.8-0.5,1.4v3.3h-1.5v-6.4h1.4v0.8c0.2-0.3,0.5-0.5,0.9-0.7s0.8-0.2,1.2-0.2c0.5,0,0.9,0.1,1.3,0.3s0.7,0.4,0.9,0.8
			c0.3-0.3,0.6-0.6,1-0.8c0.4-0.2,0.9-0.3,1.4-0.3C175.8,94.3,176.4,94.5,176.9,95z"/>
		<path class="st0" d="M183.9,95c0.5,0.5,0.8,1.1,0.8,2v3.8h-1.4V100c-0.2,0.3-0.4,0.5-0.8,0.6c-0.3,0.1-0.8,0.2-1.2,0.2
			c-0.5,0-0.9-0.1-1.3-0.2c-0.4-0.2-0.6-0.4-0.8-0.7c-0.2-0.3-0.3-0.6-0.3-1c0-0.6,0.2-1,0.6-1.4c0.4-0.3,1.1-0.5,2-0.5h1.7v-0.1
			c0-0.4-0.1-0.8-0.4-1c-0.3-0.2-0.7-0.4-1.2-0.4c-0.4,0-0.7,0.1-1.1,0.2c-0.3,0.1-0.6,0.3-0.9,0.5l-0.6-1.1
			c0.3-0.3,0.7-0.5,1.2-0.6s1-0.2,1.5-0.2C182.7,94.3,183.4,94.5,183.9,95z M182.6,99.5c0.3-0.2,0.5-0.4,0.6-0.7V98h-1.5
			c-0.9,0-1.3,0.3-1.3,0.9c0,0.3,0.1,0.5,0.3,0.6c0.2,0.2,0.5,0.2,0.9,0.2C182,99.8,182.3,99.7,182.6,99.5z"/>
		<path class="st0" d="M192,95c0.5,0.5,0.7,1.2,0.7,2.1v3.7h-1.5v-3.5c0-0.6-0.1-1-0.4-1.3c-0.3-0.3-0.6-0.4-1.1-0.4
			c-0.6,0-1,0.2-1.3,0.5s-0.5,0.8-0.5,1.4v3.2h-1.5v-6.4h1.4v0.8c0.2-0.3,0.6-0.5,0.9-0.7s0.8-0.2,1.3-0.2
			C190.9,94.3,191.5,94.5,192,95z"/>
		<path class="st0" d="M195.7,100.4c-0.5-0.3-0.9-0.7-1.2-1.2s-0.4-1.1-0.4-1.7s0.1-1.2,0.4-1.7s0.7-0.9,1.2-1.2
			c0.5-0.3,1.1-0.4,1.8-0.4c0.6,0,1.2,0.1,1.7,0.4s0.8,0.6,1.1,1.1l-1.2,0.7c-0.2-0.3-0.4-0.5-0.7-0.7s-0.6-0.2-0.9-0.2
			c-0.6,0-1,0.2-1.4,0.5c-0.4,0.4-0.6,0.9-0.6,1.5s0.2,1.1,0.5,1.5c0.4,0.4,0.8,0.5,1.4,0.5c0.3,0,0.6-0.1,0.9-0.2s0.5-0.4,0.7-0.7
			l1.2,0.7c-0.2,0.5-0.6,0.9-1.1,1.1c-0.5,0.3-1,0.4-1.7,0.4C196.8,100.9,196.2,100.7,195.7,100.4z"/>
		<path class="st0" d="M207.3,98.1h-5c0.1,0.5,0.3,0.8,0.7,1.1s0.8,0.4,1.4,0.4c0.7,0,1.3-0.2,1.7-0.7l0.8,0.9
			c-0.3,0.3-0.7,0.6-1.1,0.8c-0.4,0.2-0.9,0.3-1.5,0.3c-0.7,0-1.3-0.1-1.9-0.4c-0.5-0.3-1-0.7-1.2-1.2s-0.4-1.1-0.4-1.7
			s0.1-1.2,0.4-1.7c0.3-0.5,0.7-0.9,1.2-1.2c0.5-0.3,1.1-0.4,1.7-0.4c0.6,0,1.2,0.1,1.7,0.4s0.9,0.7,1.2,1.2s0.4,1.1,0.4,1.7
			C207.3,97.7,207.3,97.9,207.3,98.1z M202.9,95.9c-0.3,0.3-0.5,0.7-0.6,1.1h3.6c-0.1-0.5-0.3-0.8-0.6-1.1s-0.7-0.4-1.2-0.4
			C203.6,95.5,203.2,95.6,202.9,95.9z"/>
	</g>
</g>
</svg>
